<?xml version="1.0" standalone="no"?>
<!DOCTYPE svg PUBLIC "-//W3C//DTD SVG 20010904//EN"
 "http://www.w3.org/TR/2001/REC-SVG-20010904/DTD/svg10.dtd">
<svg version="1.0" xmlns="http://www.w3.org/2000/svg"
 width="256.000000pt" height="256.000000pt" viewBox="0 0 256.000000 256.000000"
 preserveAspectRatio="xMidYMid meet">
<metadata>
Created by potrace 1.14, written by Peter Selinger 2001-2017
</metadata>
<g transform="translate(0.000000,256.000000) scale(0.100000,-0.100000)"
fill="#000000" stroke="none">
<path d="M1151 1949 c-41 -5 -76 -11 -78 -13 -2 -2 63 -1 146 2 266 9 442 -38
654 -175 85 -54 229 -197 287 -282 124 -185 189 -421 178 -645 -4 -67 -3 -86
2 -56 12 64 12 204 0 277 -36 218 -127 406 -275 562 -172 182 -377 288 -629
326 -112 16 -170 17 -285 4z"/>
<path d="M961 1908 c-34 -10 -61 -21 -59 -23 2 -2 39 7 83 20 44 13 71 24 60
23 -11 0 -49 -9 -84 -20z"/>
<path d="M1124 1915 c-217 -33 -406 -123 -558 -265 -235 -220 -362 -544 -327
-837 6 -54 14 -109 17 -123 5 -17 3 -22 -4 -15 -30 29 -41 262 -17 396 55 315
245 581 531 744 87 50 93 60 11 19 -232 -118 -434 -358 -517 -614 -48 -151
-61 -337 -34 -512 l6 -38 -66 0 -66 0 0 -35 0 -35 1180 0 1180 0 0 35 0 35
-72 1 c-40 1 -76 1 -81 0 -4 -1 -4 18 0 41 5 24 8 113 8 198 -1 129 -4 169
-23 239 -46 170 -140 338 -256 459 -234 244 -577 359 -912 307z m366 -30 c187
-38 367 -134 505 -270 141 -138 227 -284 277 -465 19 -72 23 -110 23 -245 0
-88 -4 -177 -8 -197 l-8 -38 -422 0 c-373 1 -420 2 -403 15 15 11 16 15 5 15
-8 0 -24 -7 -35 -15 -11 -8 -41 -14 -72 -15 -43 0 -62 6 -95 29 -23 16 -54 32
-69 35 -26 6 -27 6 -13 -21 8 -16 25 -31 37 -35 13 -3 -9 -6 -50 -7 -40 -1
-83 4 -94 10 -15 8 -22 8 -28 0 -4 -8 -31 -11 -75 -9 l-68 3 31 33 c17 18 34
43 38 55 11 35 35 67 50 67 12 0 12 5 -1 30 -9 16 -19 30 -23 30 -9 0 -67
-121 -66 -137 1 -7 -4 -13 -11 -13 -7 0 -23 -16 -35 -35 l-22 -35 -288 0
c-245 0 -289 2 -294 15 -3 8 -10 54 -17 102 -39 290 70 601 285 818 153 155
383 267 601 295 86 11 257 3 345 -15z"/>
<path d="M1200 1845 l-1 -40 -16 33 c-9 17 -20 32 -25 32 -8 0 3 -35 22 -71
13 -23 30 -25 30 -4 0 8 5 15 10 15 6 0 10 -4 10 -10 0 -26 28 -5 38 29 15 49
15 51 -3 51 -9 0 -15 -9 -15 -25 0 -14 -3 -25 -6 -25 -8 0 -30 24 -37 40 -3 8
-6 -3 -7 -25z"/>
<path d="M1314 1856 c-11 -45 -1 -71 29 -74 15 -2 27 1 27 7 0 6 -9 11 -20 11
-11 0 -20 5 -20 10 0 6 7 10 15 10 8 0 15 5 15 10 0 6 -7 10 -15 10 -8 0 -15
5 -15 11 0 7 10 9 24 5 28 -7 45 9 20 18 -32 12 -54 6 -60 -18z"/>
<path d="M1550 1832 c0 -6 5 -14 10 -17 10 -6 8 -23 -7 -62 -3 -7 2 -13 11
-13 10 0 22 13 27 30 6 17 17 30 25 30 23 0 16 17 -8 23 -13 2 -31 8 -40 12
-11 4 -18 3 -18 -3z"/>
<path d="M920 1823 c0 -4 7 -27 16 -50 18 -47 40 -55 67 -25 22 25 21 34 -6
60 -22 20 -77 31 -77 15z m65 -34 c4 -12 2 -26 -4 -32 -13 -13 -18 -9 -26 26
-6 21 -4 27 8 27 9 0 19 -9 22 -21z"/>
<path d="M828 1783 c-12 -3 -18 -14 -18 -33 0 -50 52 -79 80 -45 25 31 -21 87
-62 78z m52 -64 c0 -15 -37 -10 -50 6 -10 12 -10 18 1 31 12 15 15 14 31 -6
10 -12 18 -26 18 -31z"/>
<path d="M1667 1755 c-9 -20 -17 -40 -17 -45 0 -14 27 -12 33 3 4 7 8 3 12
-10 4 -13 14 -23 21 -23 17 0 19 16 3 25 -6 5 -3 13 10 22 12 8 21 17 21 21 0
7 -52 42 -62 42 -2 0 -12 -16 -21 -35z m46 -8 c-2 -4 -5 -7 -8 -7 -3 0 -9 0
-15 0 -5 0 -10 4 -10 9 0 5 8 8 18 7 9 -2 16 -6 15 -9z"/>
<path d="M1149 1731 c-13 -11 -19 -20 -14 -20 14 0 50 28 43 34 -3 3 -16 -3
-29 -14z"/>
<path d="M1358 1723 c6 -3 9 -10 6 -15 -5 -7 -2 -8 6 -3 7 4 26 8 42 7 17 0
27 2 24 6 -4 3 -26 7 -49 8 -23 1 -36 -1 -29 -3z"/>
<path d="M689 1699 c-9 -18 -7 -26 9 -48 24 -33 48 -38 73 -15 18 16 18 18 3
36 -21 22 -34 23 -34 3 0 -8 5 -15 11 -15 5 0 7 -4 4 -10 -8 -12 -16 -12 -34
-1 -17 11 -5 51 15 51 8 0 14 5 14 10 0 19 -49 10 -61 -11z"/>
<path d="M1793 1694 c-30 -34 -29 -62 2 -76 23 -10 29 -8 58 20 26 26 29 34
18 41 -10 7 -20 2 -35 -17 -11 -15 -21 -29 -23 -31 -2 -3 -8 0 -14 6 -9 9 -6
19 10 39 37 46 22 62 -16 18z m67 -28 c0 -2 -8 -10 -17 -17 -16 -13 -17 -12
-4 4 13 16 21 21 21 13z"/>
<path d="M1036 1683 c-8 -16 -38 -46 -68 -68 -29 -22 -64 -53 -78 -69 -33 -39
-51 -133 -40 -202 5 -29 6 -69 3 -87 -3 -20 1 -48 10 -68 8 -19 26 -60 41 -92
14 -32 26 -65 26 -75 0 -20 53 -82 70 -82 7 0 9 -8 5 -20 -3 -11 -2 -20 3 -20
5 0 12 9 15 21 5 20 6 20 46 -7 25 -16 47 -24 58 -20 15 6 14 9 -7 19 -26 13
-42 67 -20 67 20 0 7 54 -14 58 -14 3 -17 0 -13 -12 8 -19 -18 -22 -30 -3 -4
7 -20 20 -35 30 -31 20 -39 50 -10 40 15 -6 15 -3 -3 18 -11 13 -24 27 -29 30
-4 4 -5 16 -2 27 6 17 1 21 -33 27 -22 4 -46 14 -53 22 -12 15 -8 16 32 9 25
-4 64 -8 87 -10 41 -2 82 -33 83 -62 0 -6 12 -23 27 -38 23 -23 25 -29 13 -38
-12 -8 -11 -9 3 -4 10 3 28 1 39 -5 16 -8 23 -8 29 2 13 21 11 29 -5 23 -28
-11 -75 29 -103 86 -25 48 -32 55 -55 53 -22 -2 -29 3 -34 23 -4 16 -12 23
-20 20 -7 -3 -16 0 -20 5 -4 7 6 9 27 7 31 -3 35 0 45 32 7 19 10 37 7 40 -7
8 -33 -32 -27 -41 3 -5 -9 -9 -25 -9 -38 0 -43 30 -8 45 12 6 21 17 19 24 -2
8 3 18 10 22 7 4 9 11 5 15 -12 12 -38 -18 -32 -37 7 -22 -8 -25 -24 -5 -20
23 15 69 46 61 27 -6 30 3 6 21 -16 11 -21 9 -43 -16 -18 -22 -31 -28 -47 -24
-24 7 -40 54 -27 76 5 7 9 18 9 23 2 24 19 45 36 45 14 0 19 -7 19 -29 0 -17
4 -32 8 -35 5 -3 8 18 8 46 -1 41 2 52 16 56 10 2 18 8 18 12 0 14 57 79 64
73 3 -3 6 -1 6 5 0 24 -20 21 -34 -5z m-136 -352 c0 -14 10 -36 23 -49 l22
-25 -33 19 c-25 14 -32 25 -31 44 2 14 -2 35 -9 47 -18 33 -14 41 8 13 11 -14
20 -36 20 -49z m62 -227 c5 -45 -13 -44 -34 1 -17 38 -15 45 12 38 12 -3 19
-16 22 -39z m63 -94 c16 -18 16 -20 2 -20 -9 0 -21 9 -27 20 -6 11 -7 20 -2
20 5 0 17 -9 27 -20z"/>
<path d="M1290 1661 c-22 -4 -35 -12 -35 -21 0 -16 36 -19 68 -5 13 5 16 4 11
-9 -3 -9 -14 -16 -24 -16 -31 0 -32 -17 -2 -23 15 -3 29 -1 30 4 2 5 8 9 13 9
6 0 5 -8 -1 -20 -9 -18 -8 -19 18 -16 16 2 35 7 42 11 7 4 16 2 20 -5 4 -7 28
-13 54 -14 38 -1 46 -4 46 -20 0 -14 6 -17 24 -14 19 4 23 1 18 -11 -3 -10 4
-8 21 8 28 26 36 65 15 77 -21 13 -48 11 -48 -3 0 -7 5 -13 10 -13 6 0 10 -5
10 -12 0 -6 -7 -4 -18 5 -10 10 -31 17 -45 17 -15 0 -27 4 -27 8 0 4 -20 7
-45 7 -48 -2 -58 8 -25 25 11 6 20 15 20 19 0 16 -32 22 -44 8 -6 -8 -18 -17
-27 -20 -13 -4 -15 -1 -12 14 6 21 -2 22 -67 10z"/>
<path d="M1500 1639 c-11 -20 -11 -20 17 -3 15 10 30 19 32 21 2 2 -5 3 -17 3
-12 0 -26 -9 -32 -21z"/>
<path d="M1915 1620 c-3 -5 -3 -21 1 -35 7 -27 -12 -36 -22 -10 -4 8 -10 12
-15 9 -17 -10 11 -44 36 -44 28 0 42 17 26 33 -6 6 -11 17 -11 24 0 11 4 11
20 1 26 -16 39 -2 14 17 -22 17 -40 19 -49 5z"/>
<path d="M580 1599 c0 -9 8 -20 18 -25 14 -6 11 -8 -13 -14 -16 -3 -36 -2 -42
3 -9 7 -13 5 -13 -6 0 -20 59 -69 72 -61 7 4 1 14 -13 26 l-24 18 43 -6 c35
-5 42 -4 42 10 0 9 -5 16 -10 16 -6 0 -22 12 -35 28 -18 20 -24 23 -25 11z"/>
<path d="M1200 1589 c-19 -5 -68 -10 -107 -10 -70 -2 -73 -3 -73 -25 0 -17 6
-24 19 -24 21 0 50 -38 44 -57 -4 -10 -11 -9 -33 2 -41 21 -57 19 -35 -5 10
-11 24 -20 31 -20 7 0 19 -9 27 -21 13 -17 19 -19 36 -10 13 7 21 8 21 2 0
-15 71 18 103 47 15 14 27 29 27 34 0 15 -19 8 -46 -17 -15 -14 -36 -25 -48
-25 -12 0 -31 -3 -43 -6 -18 -5 -23 -2 -23 14 0 12 5 24 10 27 6 4 8 16 5 28
l-6 22 20 -22 c22 -26 54 -29 94 -10 35 16 34 27 0 28 -16 0 -37 4 -48 8 -16
7 -13 9 20 15 22 3 48 7 58 8 20 3 17 22 -4 25 -8 0 -30 -3 -49 -8z"/>
<path d="M2015 1533 c12 -32 10 -37 -12 -48 -13 -5 -23 -13 -23 -17 0 -14 27
-9 40 7 8 9 21 13 36 9 31 -8 30 -2 -7 35 -35 35 -44 39 -34 14z"/>
<path d="M480 1501 c0 -6 16 -22 35 -37 27 -20 39 -24 47 -16 8 8 5 14 -13 21
-14 5 -31 16 -38 25 -15 18 -31 21 -31 7z"/>
<path d="M1560 1470 c0 -3 7 -27 15 -54 19 -64 19 -66 -8 -66 -28 0 -113 -72
-103 -88 3 -5 30 -9 58 -7 29 1 61 -2 71 -7 20 -10 23 2 5 21 -11 12 -10 13 6
7 36 -13 51 50 17 71 -11 7 -20 28 -24 54 -3 23 -13 49 -21 58 -9 8 -16 13
-16 11z m0 -180 c0 -5 -7 -10 -16 -10 -8 0 -12 5 -9 10 3 6 10 10 16 10 5 0 9
-4 9 -10z"/>
<path d="M1345 1400 c-3 -5 -1 -10 4 -10 6 0 11 5 11 10 0 6 -2 10 -4 10 -3 0
-8 -4 -11 -10z"/>
<path d="M1020 1386 c0 -8 8 -14 18 -14 9 0 26 -3 37 -7 20 -8 20 -8 1 13 -22
25 -56 29 -56 8z"/>
<path d="M1147 1363 c-14 -13 -6 -24 15 -21 27 4 36 28 11 28 -11 0 -23 -3
-26 -7z"/>
<path d="M1415 1341 c-6 -11 26 -31 49 -31 9 0 16 9 16 20 0 15 -7 20 -29 20
-17 0 -32 -4 -36 -9z"/>
<path d="M1065 1330 c-12 -19 -15 -59 -6 -64 5 -3 11 1 15 9 10 27 26 15 26
-20 0 -19 4 -35 9 -35 13 0 22 28 10 32 -11 4 -1 38 11 38 4 0 11 -11 14 -25
7 -29 21 -32 30 -8 4 10 4 14 0 10 -4 -4 -13 7 -19 25 -10 33 -22 37 -58 23
-13 -6 -16 -3 -11 9 7 17 -11 22 -21 6z"/>
<path d="M1180 1307 c0 -15 9 -32 22 -41 30 -22 45 -20 25 2 -9 10 -13 22 -9
28 4 5 5 8 3 6 -2 -1 -13 5 -23 15 -17 15 -18 15 -18 -10z"/>
<path d="M1348 1313 c6 -2 18 -2 25 0 6 3 1 5 -13 5 -14 0 -19 -2 -12 -5z"/>
<path d="M1540 1211 c0 -34 -44 -86 -66 -77 -9 3 -22 6 -29 6 -7 0 -27 11 -43
25 -34 28 -67 32 -76 9 -9 -24 3 -36 31 -31 18 3 35 -4 62 -26 20 -17 38 -32
40 -34 2 -1 4 -13 4 -25 l0 -24 28 27 c16 15 29 33 29 40 0 7 7 20 16 30 20
22 32 109 15 109 -6 0 -11 -13 -11 -29z"/>
<path d="M1240 1205 c0 -21 48 -39 66 -24 18 15 9 28 -15 22 -10 -3 -22 0 -25
6 -10 16 -26 13 -26 -4z"/>
<path d="M1150 1204 c0 -14 27 -50 33 -44 3 3 -3 16 -13 30 -11 14 -20 20 -20
14z"/>
<path d="M1005 1180 c3 -5 10 -10 16 -10 5 0 9 5 9 10 0 6 -7 10 -16 10 -8 0
-12 -4 -9 -10z"/>
<path d="M1557 1108 c-22 -39 -21 -59 2 -31 23 28 64 21 59 -10 -2 -15 -13
-23 -38 -28 -35 -8 -60 -32 -60 -58 1 -10 7 -5 16 12 10 18 23 27 39 27 31 0
41 -17 15 -25 -19 -6 -26 -25 -14 -38 10 -10 55 25 50 39 -3 7 -1 16 4 19 6 4
10 19 10 35 0 23 7 32 38 47 20 10 35 23 32 28 -6 11 -7 11 -69 -6 -38 -10
-46 -10 -55 3 -10 14 -14 12 -29 -14z"/>
<path d="M1030 1080 c0 -5 9 -14 20 -20 11 -6 20 -9 20 -8 0 2 -9 11 -20 21
-11 9 -20 13 -20 7z"/>
<path d="M1186 1038 c25 -44 83 -118 113 -146 l36 -32 -73 26 c-41 14 -81 22
-90 19 -12 -5 -13 -9 -4 -12 6 -3 12 -10 12 -18 0 -12 190 -125 210 -125 5 0
14 -9 20 -20 15 -28 32 -25 74 15 21 19 40 35 44 36 4 0 23 2 42 3 39 3 80 25
80 43 0 6 6 13 13 16 9 3 9 9 0 25 -9 15 -9 22 -1 24 7 3 5 7 -5 11 -11 4 -17
1 -17 -8 0 -8 -6 -15 -12 -16 -7 -1 -22 -2 -33 -3 -11 0 -19 -7 -18 -13 2 -8
-7 -13 -22 -13 -14 0 -25 6 -25 13 0 9 -11 12 -34 9 -38 -4 -106 14 -106 29 0
5 -13 9 -30 9 -19 0 -30 5 -30 14 0 8 -16 24 -36 35 -20 12 -34 25 -30 28 3 4
12 1 18 -5 17 -17 33 -15 18 3 -7 8 -18 15 -25 15 -7 0 -29 11 -49 25 -41 28
-51 31 -40 13z m238 -213 c4 -10 -1 -15 -14 -15 -11 0 -20 7 -20 15 0 8 6 15
14 15 8 0 16 -7 20 -15z m36 -31 c0 -8 -4 -12 -10 -9 -5 3 -10 10 -10 16 0 5
5 9 10 9 6 0 10 -7 10 -16z m-11 -40 c2 -2 2 -6 0 -9 -8 -7 -49 7 -49 17 0 8
38 2 49 -8z"/>
<path d="M286 818 c-12 -53 -1 -78 35 -78 19 0 29 5 29 15 0 9 -6 15 -12 14
-31 -4 -37 3 -40 44 l-4 42 -8 -37z"/>
<path d="M417 844 c-8 -9 -9 -51 -1 -81 7 -27 45 -31 64 -8 16 19 -3 45 -31
45 -11 0 -19 5 -19 11 0 7 11 8 30 4 18 -4 30 -3 30 4 0 12 -36 24 -49 17 -5
-4 -11 -1 -13 5 -2 5 -7 7 -11 3z m43 -74 c0 -5 -4 -10 -9 -10 -6 0 -13 5 -16
10 -3 6 1 10 9 10 9 0 16 -4 16 -10z"/>
<path d="M506 842 c-4 -7 -5 -33 -1 -58 6 -41 9 -44 36 -44 16 0 29 5 29 10 0
6 -9 10 -19 10 -29 0 -34 17 -8 25 l22 8 -22 4 c-15 3 -23 13 -25 31 -2 19 -5
23 -12 14z"/>
<path d="M597 844 c-10 -10 -9 -76 2 -93 11 -16 31 -6 31 16 0 11 5 9 19 -8
25 -32 38 -18 14 15 -11 16 -25 24 -35 22 -10 -2 -18 2 -18 9 0 20 23 24 36 7
6 -9 16 -12 23 -7 16 10 -24 39 -44 31 -7 -2 -15 0 -17 5 -2 6 -7 7 -11 3z"/>
<path d="M690 842 c0 -5 4 -12 9 -17 5 -6 11 -26 13 -45 4 -48 32 -48 36 0 2
19 8 41 14 47 14 17 -13 18 -30 1 -8 -8 -12 -8 -12 -1 0 6 -7 13 -15 17 -8 3
-15 2 -15 -2z"/>
<path d="M780 843 c0 -6 5 -15 10 -18 6 -3 10 -18 10 -33 0 -34 14 -57 29 -48
6 4 11 17 11 29 0 13 7 32 15 44 14 20 14 22 -4 20 -11 0 -18 -4 -15 -8 2 -4
0 -11 -6 -14 -6 -4 -19 4 -30 17 -11 13 -19 18 -20 11z"/>
<path d="M360 803 c0 -21 4 -44 9 -52 15 -24 31 -2 30 42 0 33 -2 38 -9 22 -8
-19 -9 -19 -9 3 -2 38 -21 24 -21 -15z"/>
<path d="M530 832 c0 -4 9 -8 20 -9 11 -1 20 2 20 8 0 5 -9 9 -20 9 -11 0 -20
-4 -20 -8z"/>
<path d="M312 805 c0 -16 2 -22 5 -12 2 9 2 23 0 30 -3 6 -5 -1 -5 -18z"/>
<path d="M1110 783 c1 -20 19 -35 36 -29 16 6 16 7 -2 21 -21 16 -34 19 -34 8z"/>
<path d="M860 1870 c-8 -5 -10 -10 -5 -10 6 0 17 5 25 10 8 5 11 10 5 10 -5 0
-17 -5 -25 -10z"/>
<path d="M2322 710 c0 -14 2 -19 5 -12 2 6 2 18 0 25 -3 6 -5 1 -5 -13z"/>
</g>
</svg>
